<svg width="16" height="16" viewBox="0 0 16 16" fill="none" xmlns="http://www.w3.org/2000/svg">
<g clip-path="url(#clip0_488_5428)">
<g clip-path="url(#clip1_488_5428)">
<path d="M6.06014 5.9994C6.21688 5.55385 6.52624 5.17814 6.93344 4.93883C7.34064 4.69951 7.8194 4.61203 8.28492 4.69188C8.75044 4.77173 9.17268 5.01375 9.47686 5.37509C9.78103 5.73642 9.94751 6.19375 9.94681 6.66607C9.94681 7.9994 7.94681 8.66607 7.94681 8.66607M8.00016 11.3327H8.00683M5.26683 13.3327C6.53921 13.9854 8.00289 14.1622 9.39409 13.8312C10.7853 13.5003 12.0125 12.6833 12.8547 11.5275C13.6968 10.3717 14.0984 8.95319 13.9872 7.52749C13.876 6.10179 13.2592 4.76269 12.248 3.75151C11.2368 2.74032 9.89775 2.12355 8.47206 2.01232C7.04636 1.9011 5.62781 2.30274 4.47204 3.14488C3.31627 3.98701 2.49929 5.21425 2.16831 6.60546C1.83733 7.99666 2.01412 9.46033 2.66683 10.7327L1.3335 14.666L5.26683 13.3327Z" stroke="#0E62FF" stroke-width="1.5" stroke-linecap="round" stroke-linejoin="round"/>
</g>
</g>
<defs>
<clipPath id="clip0_488_5428">
<rect width="16" height="16" fill="white"/>
</clipPath>
<clipPath id="clip1_488_5428">
<rect width="16" height="16" fill="white"/>
</clipPath>
</defs>
</svg>
