<svg width="42" height="42" viewBox="0 0 42 42" fill="none" xmlns="http://www.w3.org/2000/svg">
<path d="M25.8517 5.84076L21.8088 9.68122M7.86112 13.7235L1.99902 12.1065M9.68031 21.8088L5.83963 25.8514M12.1061 2L13.7232 7.86175" stroke="#0E62FF" stroke-width="3" stroke-linecap="round" stroke-linejoin="round"/>
<path d="M14.0928 15.6155C14.0024 15.4024 13.9777 15.1672 14.0218 14.9399C14.066 14.7127 14.1771 14.5039 14.3408 14.3402C14.5044 14.1765 14.7133 14.0655 14.9406 14.0213C15.1678 13.9772 15.4031 14.0019 15.6162 14.0923L41.2768 24.5885C41.5052 24.6822 41.6979 24.8459 41.8273 25.0561C41.9568 25.2663 42.0161 25.5121 41.997 25.7582C41.9778 26.0042 41.881 26.2379 41.7206 26.4255C41.5601 26.613 41.3443 26.7449 41.1042 26.802L30.9589 29.2302C30.5401 29.3302 30.1571 29.5442 29.8524 29.8484C29.5477 30.1526 29.3332 30.5352 29.2326 30.9539L26.8065 41.1002C26.75 41.3411 26.6183 41.5578 26.4304 41.7189C26.2426 41.8801 26.0083 41.9773 25.7616 41.9965C25.5148 42.0157 25.2683 41.9559 25.0578 41.8258C24.8472 41.6957 24.6835 41.502 24.5904 41.2728L14.0928 15.6155Z" fill="#0E62FF"/>
</svg>
