<svg width="32" height="38" viewBox="0 0 32 38" fill="none" xmlns="http://www.w3.org/2000/svg">
<path d="M4.5998 36.1L0.799805 38V0L4.5998 1.9L8.39981 0L12.1998 1.9L15.9998 0L19.7998 1.9L23.5998 0L27.3998 1.9L31.1998 0V38L27.3998 36.1L23.5998 38L19.7998 36.1L15.9998 38L12.1998 36.1L8.39981 38L4.5998 36.1Z" fill="#0E62FF"/>
<path d="M23.5979 11.4008H12.1979C11.1901 11.4008 10.2236 11.8011 9.51094 12.5138C8.79831 13.2264 8.39795 14.193 8.39795 15.2008C8.39795 16.2086 8.79831 17.1751 9.51094 17.8878C10.2236 18.6004 11.1901 19.0008 12.1979 19.0008H19.7979C20.8058 19.0008 21.7723 19.4011 22.485 20.1138C23.1976 20.8264 23.5979 21.793 23.5979 22.8008C23.5979 23.8086 23.1976 24.7751 22.485 25.4878C21.7723 26.2004 20.8058 26.6008 19.7979 26.6008H8.39795M15.9979 29.4508V8.55078" stroke="white" stroke-width="3.8" stroke-linecap="round" stroke-linejoin="round"/>
</svg>
