<svg width="34" height="34" viewBox="0 0 34 34" fill="none" xmlns="http://www.w3.org/2000/svg">
<path d="M17 34C26.3888 34 34 26.3888 34 17C34 7.61116 26.3888 0 17 0C7.61116 0 0 7.61116 0 17C0 26.3888 7.61116 34 17 34Z" fill="#0E62FF"/>
<path d="M25.1885 18.6992C26.2406 18.6992 27.0471 19.6538 26.6721 20.6367C26.0525 22.2602 25.0241 23.7095 23.6722 24.8361C21.8015 26.395 19.4347 27.2332 16.9998 27.1992C14.5649 27.2332 12.1982 26.395 10.3274 24.8361C8.97548 23.7095 7.94706 22.2601 7.32754 20.6367C6.95247 19.6538 7.75906 18.6992 8.81107 18.6992H25.1885Z" fill="white"/>
<circle cx="11.9002" cy="11.8992" r="1.7" fill="white"/>
<circle cx="22.0999" cy="11.8992" r="1.7" fill="white"/>
</svg>
