<svg width="38" height="38" viewBox="0 0 38 38" fill="none" xmlns="http://www.w3.org/2000/svg">
<path d="M18.2706 4.7476C18.3382 4.6111 18.4426 4.4962 18.572 4.41587C18.7014 4.33554 18.8506 4.29297 19.0029 4.29297C19.1552 4.29297 19.3045 4.33554 19.4339 4.41587C19.5633 4.4962 19.6677 4.6111 19.7352 4.7476L23.2965 11.9611C23.5311 12.4358 23.8774 12.8466 24.3057 13.1581C24.734 13.4696 25.2315 13.6725 25.7554 13.7494L33.7197 14.9149C33.8706 14.9368 34.0124 15.0004 34.129 15.0987C34.2456 15.1969 34.3324 15.3258 34.3795 15.4708C34.4267 15.6158 34.4324 15.7711 34.3958 15.9192C34.3593 16.0672 34.2821 16.2021 34.1729 16.3086L28.4133 21.9171C28.0334 22.2873 27.7492 22.7442 27.5851 23.2486C27.4211 23.7529 27.382 24.2896 27.4713 24.8124L28.8311 32.7366C28.8577 32.8874 28.8414 33.0427 28.784 33.1847C28.7267 33.3267 28.6305 33.4497 28.5066 33.5398C28.3827 33.6298 28.2359 33.6831 28.0831 33.6938C27.9303 33.7044 27.7776 33.6719 27.6424 33.5999L20.523 29.8567C20.0539 29.6104 19.532 29.4817 19.0022 29.4817C18.4723 29.4817 17.9504 29.6104 17.4813 29.8567L10.3634 33.5999C10.2283 33.6714 10.0758 33.7036 9.92322 33.6928C9.77067 33.6819 9.62424 33.6285 9.50056 33.5386C9.37688 33.4486 9.28093 33.3258 9.22362 33.184C9.1663 33.0422 9.14993 32.8872 9.17635 32.7366L10.5346 24.8139C10.6243 24.2909 10.5854 23.7539 10.4213 23.2492C10.2572 22.7445 9.97279 22.2874 9.5926 21.9171L3.83294 16.3101C3.72285 16.2038 3.64484 16.0687 3.6078 15.9202C3.57075 15.7717 3.57615 15.6158 3.62339 15.4702C3.67063 15.3246 3.75781 15.1952 3.87499 15.0968C3.99217 14.9983 4.13465 14.9348 4.28619 14.9133L12.2489 13.7494C12.7735 13.6731 13.2716 13.4704 13.7005 13.1589C14.1294 12.8474 14.4761 12.4363 14.7109 11.9611L18.2706 4.7476Z" fill="#0E62FF" stroke="#0E62FF" stroke-width="2.3125" stroke-linecap="round" stroke-linejoin="round"/>
</svg>
