<svg width="20" height="20" viewBox="0 0 20 20" fill="none" xmlns="http://www.w3.org/2000/svg">
<path d="M13.312 0C13.8424 0.000113275 14.351 0.210901 14.726 0.586L19.414 5.274C19.7891 5.64899 19.9999 6.15761 20 6.688V13.312C19.9999 13.8424 19.7891 14.351 19.414 14.726L14.726 19.414C14.351 19.7891 13.8424 19.9999 13.312 20H6.688C6.15761 19.9999 5.64899 19.7891 5.274 19.414L0.586 14.726C0.210901 14.351 0.000113275 13.8424 0 13.312V6.688C0.000113275 6.15761 0.210901 5.64899 0.586 5.274L5.274 0.586C5.64899 0.210901 6.15761 0.000113275 6.688 0H13.312Z" fill="#505866"/>
<path d="M10.0098 13C10.5621 13 11.0098 13.4477 11.0098 14C11.0098 14.5523 10.5621 15 10.0098 15H10C9.44772 15 9 14.5523 9 14C9 13.4477 9.44772 13 10 13H10.0098ZM9 10V6C9 5.44772 9.44772 5 10 5C10.5523 5 11 5.44772 11 6V10C11 10.5523 10.5523 11 10 11C9.44772 11 9 10.5523 9 10Z" fill="#E8EAEC"/>
</svg>
