<svg width="12" height="12" viewBox="0 0 12 12" fill="none" xmlns="http://www.w3.org/2000/svg">
<path d="M3.5 3.25V1.25C3.5 0.835786 3.83579 0.5 4.25 0.5C4.66421 0.5 5 0.835786 5 1.25V3.25C5 3.66421 4.66421 4 4.25 4C3.83579 4 3.5 3.66421 3.5 3.25ZM7 3.25V1.25C7 0.835786 7.33579 0.5 7.75 0.5C8.16421 0.5 8.5 0.835786 8.5 1.25V3.25C8.5 3.66421 8.16421 4 7.75 4C7.33579 4 7 3.66421 7 3.25Z" fill="#2FA800"/>
<path d="M1.5 5.5H10.5H1.5Z" fill="white"/>
<path fill-rule="evenodd" clip-rule="evenodd" d="M10.5 5.5H1.5V10.5C1.5 11.0523 1.94772 11.5 2.5 11.5H9.5C10.0523 11.5 10.5 11.0523 10.5 10.5V5.5Z" fill="white"/>
<path d="M5.25 9.5V8.2041C4.95923 8.10086 4.75 7.82617 4.75 7.5C4.75 7.08579 5.08579 6.75 5.5 6.75H6L6.07715 6.75391C6.45512 6.79253 6.75 7.11183 6.75 7.5V9.5C6.75 9.91421 6.41421 10.25 6 10.25C5.58579 10.25 5.25 9.91421 5.25 9.5Z" fill="#2FA800"/>
<path d="M1.5 5.5H10.5H1.5Z" fill="#2FA800"/>
<path fill-rule="evenodd" clip-rule="evenodd" d="M10.5 5.5H1.5V3.5C1.5 2.94772 1.94772 2.5 2.5 2.5H9.5C10.0523 2.5 10.5 2.94772 10.5 3.5V5.5Z" fill="#2FA800"/>
</svg>
