<svg width="12" height="12" viewBox="0 0 12 12" fill="none" xmlns="http://www.w3.org/2000/svg">
<g clip-path="url(#clip0_505_11669)">
<g clip-path="url(#clip1_505_11669)">
<path d="M4.25 7.25C4.58152 7.25 4.89946 7.1183 5.13388 6.88388C5.3683 6.64946 5.5 6.33152 5.5 6C5.5 5.31 5.25 5 5 4.5C4.50706 3.51457 4.82608 2.62726 5.74548 1.73421C5.85578 1.62707 6.03902 1.68786 6.07951 1.8362C6.38709 2.96286 7.09004 4.02204 8 4.75C9 5.55 9.5 6.5 9.5 7.5C9.5 7.95963 9.40947 8.41475 9.23358 8.83939C9.05769 9.26403 8.79988 9.64987 8.47487 9.97487C8.14987 10.2999 7.76403 10.5577 7.33939 10.7336C6.91475 10.9095 6.45963 11 6 11C5.54037 11 5.08525 10.9095 4.66061 10.7336C4.23597 10.5577 3.85013 10.2999 3.52513 9.97487C3.20012 9.64987 2.94231 9.26403 2.76642 8.83939C2.59053 8.41475 2.5 7.95963 2.5 7.5C2.5 7.1439 2.5826 6.79009 2.71258 6.48842C2.78731 6.31497 3.04408 6.37938 3.12704 6.54905C3.18713 6.67196 3.26754 6.78531 3.36612 6.88388C3.60054 7.1183 3.91848 7.25 4.25 7.25Z" fill="#0E62FF"/>
</g>
</g>
<defs>
<clipPath id="clip0_505_11669">
<rect width="12" height="12" fill="white"/>
</clipPath>
<clipPath id="clip1_505_11669">
<rect width="12" height="12" fill="white"/>
</clipPath>
</defs>
</svg>
