<svg width="12" height="12" viewBox="0 0 12 12" fill="none" xmlns="http://www.w3.org/2000/svg">
<path d="M10.5004 6.00003H11.0004M9.25032 2.25001L9.00031 2.50001M1 6.00003H1.50002M6.0002 1V1.5M2.46453 2.46449L2.81805 2.81799" stroke="#9230CF" stroke-width="1.25003" stroke-linecap="round" stroke-linejoin="round"/>
<path d="M3.14241 8.86719V5.66717C3.14241 4.95992 3.44344 4.28164 3.97928 3.78154C4.51512 3.28144 5.24188 3.00049 5.99967 3.00049C6.75746 3.00049 7.48421 3.28144 8.02005 3.78154C8.55589 4.28164 8.85692 4.95992 8.85692 5.66717V8.86719" fill="#9230CF"/>
<path d="M1.99951 10.4672C1.99951 10.6087 2.05972 10.7443 2.16689 10.8443C2.27405 10.9444 2.4194 11.0005 2.57096 11.0005H9.42837C9.57993 11.0005 9.72528 10.9444 9.83245 10.8443C9.93962 10.7443 9.99982 10.6087 9.99982 10.4672V9.93387C9.99982 9.65097 9.87941 9.37965 9.66508 9.17962C9.45074 8.97957 9.16004 8.86719 8.85692 8.86719H3.14241C2.8393 8.86719 2.5486 8.97957 2.33426 9.17962C2.11992 9.37965 1.99951 9.65097 1.99951 9.93387V10.4672Z" fill="#9230CF"/>
<path d="M5.99967 5.66717V8.86719V5.66717Z" fill="#9230CF"/>
</svg>
