<svg width="24" height="24" viewBox="0 0 24 24" fill="none" xmlns="http://www.w3.org/2000/svg">
<path d="M11.6025 8.30872C12.1309 6.54921 13.9687 3.24354 17.0934 4.09691C20.2181 4.95028 21.3389 4.14471 21.5088 3.63525" stroke="#1A1E27" stroke-width="1.8"/>
<ellipse cx="7.92498" cy="15.9236" rx="7.92498" ry="8.07744" fill="url(#paint0_linear_364_211)"/>
<rect width="4.89178" height="3.21584" rx="0.818181" transform="matrix(0.861851 0.507162 -0.492872 0.870102 10.5293 6.23145)" fill="#0E62FF"/>
<path d="M19.6219 0.731441C19.7334 0.461815 20.1153 0.461815 20.2268 0.731441L20.7287 1.94525C20.7923 2.09911 20.9613 2.18069 21.1213 2.13478L22.3675 1.77731C22.6454 1.69758 22.8826 1.99111 22.7463 2.24615L22.1164 3.42485C22.0397 3.56854 22.0803 3.74682 22.2117 3.8431L23.2821 4.62734C23.5141 4.79737 23.4297 5.16259 23.1465 5.21345L21.8581 5.4449C21.6961 5.47398 21.581 5.61874 21.589 5.78305L21.6542 7.11188C21.6685 7.4025 21.3248 7.56582 21.1085 7.37121L20.1432 6.50286C20.0188 6.3909 19.8299 6.3909 19.7055 6.50286L18.7402 7.37121C18.5239 7.56582 18.1802 7.4025 18.1945 7.11188L18.2596 5.78305C18.2677 5.61874 18.1525 5.47398 17.9906 5.4449L16.7022 5.21345C16.419 5.16259 16.3345 4.79737 16.5666 4.62734L17.637 3.8431C17.7684 3.74682 17.809 3.56853 17.7322 3.42485L17.1023 2.24615C16.966 1.99111 17.2033 1.69758 17.4812 1.77731L18.7273 2.13478C18.8874 2.18069 19.0564 2.09911 19.12 1.94524L19.6219 0.731441Z" fill="#4AE37A"/>
<defs>
<linearGradient id="paint0_linear_364_211" x1="7.92498" y1="11.8445" x2="7.92498" y2="33.9755" gradientUnits="userSpaceOnUse">
<stop stop-color="#0E62FF"/>
<stop offset="1" stop-color="#4AE37A"/>
</linearGradient>
</defs>
</svg>
