<svg width="24" height="24" viewBox="0 0 24 24" fill="none" xmlns="http://www.w3.org/2000/svg">
<path d="M19.6367 9.27273C19.6367 4.15154 15.4852 0 10.364 0H9.81854C4.39611 0 0.000354767 4.39575 0.000354767 9.81818V17.4545C0.000354767 18.057 0.488771 18.5455 1.09126 18.5455H10.364C15.4852 18.5455 19.6367 14.3939 19.6367 9.27273Z" fill="url(#paint0_linear_364_329)"/>
<path d="M4.36426 14.7288C4.36426 9.6076 8.5158 5.45605 13.637 5.45605H14.1824C19.6049 5.45605 24.0006 9.85181 24.0006 15.2742V22.9106C24.0006 23.5131 23.5122 24.0015 22.9097 24.0015H13.637C8.5158 24.0015 4.36426 19.85 4.36426 14.7288Z" fill="url(#paint1_linear_364_329)"/>
<circle cx="9.27353" cy="14.7257" r="1.09091" fill="#DAE7FF"/>
<circle cx="15.8204" cy="14.7257" r="1.09091" fill="#DAE7FF"/>
<circle cx="12.546" cy="14.7257" r="1.09091" fill="#DAE7FF"/>
<defs>
<linearGradient id="paint0_linear_364_329" x1="9.81854" y1="0" x2="-2.45419" y2="49.9091" gradientUnits="userSpaceOnUse">
<stop stop-color="#1A1E27"/>
<stop offset="1" stop-color="#4AE37A"/>
</linearGradient>
<linearGradient id="paint1_linear_364_329" x1="14.1824" y1="5.45605" x2="12.8188" y2="40.9106" gradientUnits="userSpaceOnUse">
<stop stop-color="#0E62FF"/>
<stop offset="1" stop-color="#4AE37A"/>
</linearGradient>
</defs>
</svg>
