<svg width="24" height="24" viewBox="0 0 24 24" fill="none" xmlns="http://www.w3.org/2000/svg">
<path d="M2.46154 17.8462C0.615385 19.397 0 24 0 24C0 24 4.60308 23.3846 6.15385 21.5385C7.02769 20.5047 7.01538 18.917 6.04308 17.957C5.56468 17.5004 4.93451 17.2366 4.27351 17.2161C3.6125 17.1957 2.96723 17.4201 2.46154 17.8462Z" fill="url(#paint0_linear_364_183)"/>
<path d="M12 15.5538V20.7275C12 21.2378 12.4602 21.6172 12.9524 21.4822C14.1404 21.1561 16.114 20.4555 16.9231 19.246C18.2523 17.2522 16.9231 13.0923 16.9231 13.0923" fill="url(#paint1_linear_364_183)"/>
<path d="M8.33549 12.0577L3.16171 12.0577C2.65134 12.0577 2.27194 11.5975 2.40701 11.1053C2.73304 9.91727 3.43374 7.94377 4.64318 7.1347C6.63702 5.8055 10.797 7.1347 10.797 7.1347" fill="url(#paint2_linear_364_183)"/>
<path d="M12.1854 15.8071C11.8865 15.9274 11.5457 15.8535 11.3179 15.6256L8.37629 12.6841C8.1475 12.4553 8.07398 12.1127 8.19626 11.8132C8.81714 10.2922 9.5753 8.83051 10.4615 7.44634C11.8956 5.15344 13.8925 3.26554 16.2622 1.96223C18.394 0.789744 20.7638 0.125447 23.1871 0.0161111C23.6365 -0.00416653 24.0021 0.362098 23.9811 0.811498C23.8211 4.23907 22.5484 9.56055 16.6154 13.5385C15.21 14.4272 13.7272 15.1864 12.1854 15.8071Z" fill="url(#paint3_linear_364_183)"/>
<defs>
<linearGradient id="paint0_linear_364_183" x1="4.63636" y1="16.0909" x2="-0.545454" y2="25.3636" gradientUnits="userSpaceOnUse">
<stop stop-color="#0E62FF"/>
<stop offset="1" stop-color="#4AE37A"/>
</linearGradient>
<linearGradient id="paint1_linear_364_183" x1="11.4897" y1="11.5537" x2="16.1261" y2="37.7355" gradientUnits="userSpaceOnUse">
<stop stop-color="#1A1E27"/>
<stop offset="1" stop-color="#4AE37A"/>
</linearGradient>
<linearGradient id="paint2_linear_364_183" x1="2.99982" y1="10.3621" x2="3.818" y2="23.453" gradientUnits="userSpaceOnUse">
<stop stop-color="#1A1E27"/>
<stop offset="1" stop-color="#4AE37A"/>
</linearGradient>
<linearGradient id="paint3_linear_364_183" x1="10.364" y1="6.27273" x2="8.72763" y2="18.2727" gradientUnits="userSpaceOnUse">
<stop stop-color="#0E62FF"/>
<stop offset="1" stop-color="#4AE37A"/>
</linearGradient>
</defs>
</svg>
