<svg width="24" height="24" viewBox="0 0 24 24" fill="none" xmlns="http://www.w3.org/2000/svg">
<path d="M1.42665 19.7606L5.93263 14.5807C6.27079 14.192 6.79485 14.0199 7.29761 14.1326L8.67577 14.4415C9.38603 14.6007 9.85649 15.2767 9.75897 15.9981L8.89687 22.3743C8.78137 23.2286 7.92991 23.7774 7.10421 23.5299L2.08217 22.0247C1.10613 21.7321 0.757892 20.5293 1.42665 19.7606Z" fill="url(#paint0_linear_364_190)"/>
<path d="M22.5734 19.7606L18.0674 14.5807C17.7292 14.192 17.2051 14.0199 16.7024 14.1326L15.3242 14.4415C14.614 14.6007 14.1435 15.2767 14.241 15.9981L15.1031 22.3743C15.2186 23.2286 16.0701 23.7774 16.8958 23.5299L21.9178 22.0247C22.8939 21.7321 23.2421 20.5293 22.5734 19.7606Z" fill="url(#paint1_linear_364_190)"/>
<ellipse cx="12.0004" cy="8.82082" rx="8.89686" ry="8.82082" fill="url(#paint2_linear_364_190)"/>
<path d="M10.8798 5.78329C11.2544 5.22177 11.4417 4.941 11.6777 4.84315C11.884 4.75761 12.1159 4.75761 12.3223 4.84315C12.5583 4.941 12.7456 5.22177 13.1202 5.78329L13.3686 6.15571C13.4718 6.31048 13.5234 6.38786 13.5885 6.45077C13.6463 6.50658 13.7118 6.55383 13.7829 6.59108C13.8631 6.63309 13.9528 6.65771 14.1322 6.70697L14.5488 6.82134C15.2086 7.00248 15.5385 7.09306 15.7061 7.28848C15.8527 7.45928 15.9247 7.68166 15.9061 7.90594C15.8848 8.16253 15.6706 8.42929 15.2423 8.9628L14.9835 9.28512C14.8659 9.43155 14.8071 9.50476 14.7666 9.58661C14.7306 9.65921 14.7052 9.73663 14.6914 9.81647C14.6758 9.90648 14.6799 10.0003 14.6883 10.1879L14.707 10.6105C14.7371 11.2883 14.7522 11.6273 14.619 11.8461C14.5025 12.0375 14.3145 12.1745 14.0967 12.2269C13.8475 12.2867 13.5295 12.1687 12.8934 11.9326L12.4685 11.7749C12.2951 11.7106 12.2084 11.6784 12.1192 11.6657C12.0401 11.6543 11.9599 11.6543 11.8808 11.6657C11.7916 11.6784 11.7049 11.7106 11.5315 11.7749L11.1066 11.9326C10.4705 12.1687 10.1525 12.2867 9.90329 12.2269C9.68547 12.1745 9.49751 12.0375 9.38104 11.8461C9.2478 11.6273 9.26285 11.2883 9.29296 10.6105L9.31173 10.1879C9.32007 10.0003 9.32423 9.90648 9.30861 9.81647C9.29475 9.73663 9.26943 9.65921 9.23344 9.58661C9.19286 9.50476 9.13408 9.43155 9.01651 9.28512L8.75771 8.9628C8.32935 8.42929 8.11517 8.16253 8.0939 7.90594C8.0753 7.68166 8.14732 7.45928 8.29385 7.28848C8.46149 7.09306 8.79138 7.00248 9.45116 6.82134L9.86775 6.70697C10.0471 6.65771 10.1368 6.63309 10.2171 6.59108C10.2882 6.55383 10.3537 6.50658 10.4114 6.45077C10.4766 6.38786 10.5282 6.31048 10.6314 6.15571L10.8798 5.78329Z" fill="#1A1E27"/>
<defs>
<linearGradient id="paint0_linear_364_190" x1="6.00021" y1="12.6867" x2="4.96569" y2="32.5731" gradientUnits="userSpaceOnUse">
<stop stop-color="#0E62FF"/>
<stop offset="1" stop-color="#4AE37A"/>
</linearGradient>
<linearGradient id="paint1_linear_364_190" x1="19.0343" y1="13.9497" x2="21.9428" y2="30.173" gradientUnits="userSpaceOnUse">
<stop stop-color="#0E62FF"/>
<stop offset="1" stop-color="#4AE37A"/>
</linearGradient>
<linearGradient id="paint2_linear_364_190" x1="12.0004" y1="3.60012" x2="12.0004" y2="50.7446" gradientUnits="userSpaceOnUse">
<stop stop-color="#DAE7FF"/>
<stop offset="1" stop-color="#4AE37A"/>
</linearGradient>
</defs>
</svg>
