<svg width="24" height="24" viewBox="0 0 24 24" fill="none" xmlns="http://www.w3.org/2000/svg">
<rect x="24" y="2.18262" width="19.6364" height="24" rx="2.72727" transform="rotate(90 24 2.18262)" fill="url(#paint0_linear_364_153)"/>
<path d="M21.248 14.7336L17.3792 12.6626C17.1839 12.5581 16.952 12.7177 16.98 12.9375L17.5329 17.2903C17.5665 17.5552 17.9214 17.619 18.0451 17.3824L18.9663 15.621C19.0081 15.5411 19.0866 15.487 19.1762 15.4765L21.1511 15.2449C21.4163 15.2138 21.4834 14.8596 21.248 14.7336Z" fill="url(#paint1_linear_364_153)"/>
<path d="M0 4.91038C0 3.40415 1.22104 2.18311 2.72727 2.18311H8.18182V21.8195H2.72727C1.22104 21.8195 0 20.5984 0 19.0922V4.91038Z" fill="url(#paint2_linear_364_153)"/>
<rect x="2.72852" y="4.36523" width="3.27273" height="1.63636" rx="0.818182" fill="#0E62FF"/>
<rect x="2.72852" y="7.63672" width="3.27273" height="1.63636" rx="0.818182" fill="#0E62FF"/>
<rect x="2.72852" y="10.9087" width="3.27273" height="1.63636" rx="0.818182" fill="#0E62FF"/>
<defs>
<linearGradient id="paint0_linear_364_153" x1="24" y1="18.819" x2="111.545" y2="15.2735" gradientUnits="userSpaceOnUse">
<stop stop-color="#DAE7FF"/>
<stop offset="1" stop-color="#4AE37A"/>
</linearGradient>
<linearGradient id="paint1_linear_364_153" x1="18.7067" y1="12.6894" x2="20.6498" y2="22.4891" gradientUnits="userSpaceOnUse">
<stop stop-color="#1A1E27"/>
<stop offset="1" stop-color="#4AE37A"/>
</linearGradient>
<linearGradient id="paint2_linear_364_153" x1="4.09091" y1="3.54674" x2="0.378466" y2="96.0849" gradientUnits="userSpaceOnUse">
<stop stop-color="#1A1E27"/>
<stop offset="1" stop-color="#4AE37A"/>
</linearGradient>
</defs>
</svg>
