<svg width="24" height="24" viewBox="0 0 24 24" fill="none" xmlns="http://www.w3.org/2000/svg">
<path d="M15.312 2C15.8424 2.00011 16.351 2.2109 16.726 2.586L21.414 7.274C21.7891 7.64899 21.9999 8.15761 22 8.688V15.312C21.9999 15.8424 21.7891 16.351 21.414 16.726L16.726 21.414C16.351 21.7891 15.8424 21.9999 15.312 22H8.688C8.15761 21.9999 7.64899 21.7891 7.274 21.414L2.586 16.726C2.2109 16.351 2.00011 15.8424 2 15.312V8.688C2.00011 8.15761 2.2109 7.64899 2.586 7.274L7.274 2.586C7.64899 2.2109 8.15761 2.00011 8.688 2H15.312Z" fill="#0E62FF"/>
<path d="M12.0098 15C12.5621 15 13.0098 15.4477 13.0098 16C13.0098 16.5523 12.5621 17 12.0098 17H12C11.4477 17 11 16.5523 11 16C11 15.4477 11.4477 15 12 15H12.0098ZM11 12V8C11 7.44772 11.4477 7 12 7C12.5523 7 13 7.44772 13 8V12C13 12.5523 12.5523 13 12 13C11.4477 13 11 12.5523 11 12Z" fill="#F3F7FF"/>
</svg>
