<svg width="24" height="24" viewBox="0 0 24 24" fill="none" xmlns="http://www.w3.org/2000/svg">
<path d="M21.0007 12.0001H22.0008M18.5006 4.50002L18.0006 5.00002M2 12.0001H3.00004M12.0004 2V3.00001M4.92907 4.92897L5.6361 5.63598" stroke="#0E62FF" stroke-width="1.25003" stroke-linecap="round" stroke-linejoin="round"/>
<path d="M6.28434 17.7334V11.3334C6.28434 9.91887 6.8864 8.56231 7.95808 7.56211C9.02976 6.56191 10.4833 6 11.9988 6C13.5144 6 14.9679 6.56191 16.0396 7.56211C17.1113 8.56231 17.7134 9.91887 17.7134 11.3334V17.7334" fill="#0E62FF"/>
<path d="M3.99854 20.9334C3.99854 21.2163 4.11895 21.4876 4.33328 21.6877C4.54762 21.8877 4.83832 22.0001 5.14144 22.0001H18.8563C19.1594 22.0001 19.4501 21.8877 19.6644 21.6877C19.8787 21.4876 19.9992 21.2163 19.9992 20.9334V19.8668C19.9992 19.301 19.7583 18.7583 19.3297 18.3583C18.901 17.9582 18.3196 17.7334 17.7134 17.7334H6.28434C5.67811 17.7334 5.0967 17.9582 4.66803 18.3583C4.23936 18.7583 3.99854 19.301 3.99854 19.8668V20.9334Z" fill="#0E62FF"/>
<path d="M11.9988 11.3334V17.7334V11.3334Z" fill="#0E62FF"/>
</svg>
