<svg width="24" height="24" viewBox="0 0 24 24" fill="none" xmlns="http://www.w3.org/2000/svg">
<g clip-path="url(#clip0_604_19949)">
<rect width="24" height="24" rx="12" fill="#F3F7FF"/>
<g clip-path="url(#clip1_604_19949)">
<g clip-path="url(#clip2_604_19949)">
<path d="M12 13C14.7614 13 17 10.7614 17 8C17 5.23858 14.7614 3 12 3C9.23858 3 7 5.23858 7 8C7 10.7614 9.23858 13 12 13ZM12 13C14.1217 13 16.1566 13.8429 17.6569 15.3431C19.1571 16.8434 20 18.8783 20 21M12 13C9.87827 13 7.84344 13.8429 6.34315 15.3431C4.84285 16.8434 4 18.8783 4 21" stroke="#74A4FF" stroke-width="1.5" stroke-linecap="round" stroke-linejoin="round"/>
</g>
</g>
</g>
<defs>
<clipPath id="clip0_604_19949">
<rect width="24" height="24" rx="12" fill="white"/>
</clipPath>
<clipPath id="clip1_604_19949">
<rect width="24" height="24" fill="white"/>
</clipPath>
<clipPath id="clip2_604_19949">
<rect width="24" height="24" fill="white"/>
</clipPath>
</defs>
</svg>
