<svg width="24" height="24" viewBox="0 0 24 24" fill="none" xmlns="http://www.w3.org/2000/svg">
<path d="M10.1003 2.18216C11.3554 1.93928 12.6453 1.93928 13.9003 2.18216M13.9003 21.8184C12.6453 22.0612 11.3554 22.0612 10.1003 21.8184M17.6091 3.72119C18.6706 4.44041 19.5839 5.35706 20.2991 6.42119M2.18216 13.9003C1.93928 12.6453 1.93928 11.3554 2.18216 10.1003M20.2793 17.6091C19.5601 18.6706 18.6435 19.5839 17.5793 20.2991M21.8184 10.1003C22.0612 11.3554 22.0612 12.6453 21.8184 13.9003M3.72119 6.39117C4.44041 5.3297 5.35706 4.41645 6.42119 3.70117M6.39117 20.2793C5.3297 19.5601 4.41645 18.6435 3.70117 17.5793" stroke="#0E62FF" stroke-width="2" stroke-linecap="round" stroke-linejoin="round"/>
</svg>
