<svg width="24" height="24" viewBox="0 0 24 24" fill="none" xmlns="http://www.w3.org/2000/svg">
<path fill-rule="evenodd" clip-rule="evenodd" d="M10.7776 5.77758L9.77759 4.04553C9.51237 3.58616 9.07553 3.25096 8.56318 3.11368C8.05082 2.97639 7.50491 3.04826 7.04554 3.31348C6.58617 3.57869 6.25097 4.01553 6.11369 4.52789C5.9764 5.04025 6.04827 5.58616 6.31349 6.04553L7.31349 7.77758C7.04827 7.31821 6.61143 6.98301 6.09907 6.84573C5.58671 6.70844 5.0408 6.78031 4.58144 7.04553C4.12207 7.31074 3.78687 7.74758 3.64958 8.25994C3.5123 8.7723 3.58417 9.31821 3.84939 9.77758L7.84939 16.7058L6.8113 16.4276C6.30964 16.3183 5.7852 16.4062 5.34656 16.673C4.90791 16.9398 4.58866 17.365 4.4549 17.8607C4.32115 18.3564 4.38313 18.8845 4.62802 19.3358C4.87291 19.787 5.28195 20.1268 5.77044 20.2847L10.6881 21.6024C12.7185 22.1392 14.6208 22.0339 17.0456 20.6339L18.7777 19.6339C20.6152 18.5731 21.9559 16.8257 22.5051 14.7763C23.0542 12.7268 22.7667 10.5432 21.7059 8.70573L18.7059 3.50958C18.4407 3.05021 18.0038 2.71501 17.4915 2.57773C16.9791 2.44044 16.4332 2.51231 15.9738 2.77753C15.5145 3.04274 15.1793 3.47958 15.042 3.99194C14.9047 4.5043 14.9766 5.05021 15.2418 5.50958L14.2417 3.77758C13.9765 3.31821 13.5396 2.98301 13.0273 2.84573C12.5149 2.70844 11.969 2.78031 11.5096 3.04553C11.0503 3.31074 10.7151 3.74758 10.5778 4.25994C10.4405 4.7723 10.5124 5.31821 10.7776 5.77758Z" fill="#0E62FF"/>
</svg>
