<svg width="24" height="24" viewBox="0 0 24 24" fill="none" xmlns="http://www.w3.org/2000/svg">
<path d="M20 5H4C2.89543 5 2 5.89543 2 7V17C2 18.1046 2.89543 19 4 19H20C21.1046 19 22 18.1046 22 17V7C22 5.89543 21.1046 5 20 5Z" fill="#0E62FF"/>
<path d="M15.8301 10H17.8301M15.8301 14H17.8301M6 15.0001C6.20614 14.4141 6.5891 13.9065 7.09602 13.5475C7.60294 13.1884 8.20881 12.9956 8.83 12.9956C9.45119 12.9956 10.0571 13.1884 10.564 13.5475C11.0709 13.9065 11.4539 14.4141 11.66 15.0001M10.8301 11C10.8301 12.1046 9.93465 13 8.83008 13C7.72551 13 6.83008 12.1046 6.83008 11C6.83008 9.89543 7.72551 9 8.83008 9C9.93465 9 10.8301 9.89543 10.8301 11Z" stroke="#F3F7FF" stroke-width="1.5" stroke-linecap="round" stroke-linejoin="round"/>
</svg>
