<svg width="24" height="24" viewBox="0 0 24 24" fill="none" xmlns="http://www.w3.org/2000/svg">
<path d="M12 22C17.5228 22 22 17.5228 22 12C22 6.47715 17.5228 2 12 2C6.47715 2 2 6.47715 2 12C2 17.5228 6.47715 22 12 22Z" fill="#0E62FF"/>
<path d="M16.8169 13C17.4357 13 17.9102 13.5615 17.6896 14.1397C17.3251 15.0947 16.7202 15.9472 15.9249 16.6099C14.8245 17.5269 13.4323 18.02 12 18C10.5677 18.02 9.1755 17.5269 8.07507 16.6099C7.27981 15.9472 6.67486 15.0947 6.31043 14.1397C6.0898 13.5615 6.56427 13 7.1831 13H16.8169Z" fill="#F3F7FF"/>
<circle cx="9" cy="9" r="1" fill="#F3F7FF"/>
<circle cx="15" cy="9" r="1" fill="#F3F7FF"/>
</svg>
