<svg width="24" height="24" viewBox="0 0 24 24" fill="none" xmlns="http://www.w3.org/2000/svg">
<path fill-rule="evenodd" clip-rule="evenodd" d="M8.27817 7L6.10836 3.15264C6.05157 3.05194 5.94941 3 5.84672 3H18.1533C18.0506 3 17.9484 3.05194 17.8916 3.15264L15.7218 7H8.27817ZM18.251 3.0162V3H18.1533C18.1863 3 18.2193 3.00537 18.251 3.0162Z" fill="#64768C"/>
<path d="M8.27817 7L6.10836 3.15264C6.05157 3.05194 5.94941 3 5.84672 3C5.842 3 5.83728 3.00011 5.83257 3.00033C5.74907 3.00422 5.66658 3.04258 5.60925 3.11713L5.25098 3.58298L4.81742 4.14674C3.52678 5.82495 3.39654 8.0951 4.48718 9.90324L8.01849 15.7577L11.751 13.1577L8.27817 7Z" fill="#B1B8C0"/>
<path d="M17.8916 3.15264L15.7218 7L12.249 13.1577L15.9815 15.7577L19.5128 9.90324C20.6035 8.0951 20.4732 5.82495 19.1826 4.14674L18.3908 3.11713C18.3528 3.06782 18.3039 3.03435 18.251 3.0162C18.2193 3.00537 18.1863 3 18.1533 3C18.0506 3 17.9484 3.05194 17.8916 3.15264Z" fill="#B1B8C0"/>
<path d="M11.751 21C14.5124 21 16.751 18.7614 16.751 16C16.751 13.2386 14.5124 11 11.751 11C8.98955 11 6.75098 13.2386 6.75098 16C6.75098 18.7614 8.98955 21 11.751 21Z" fill="#0E62FF"/>
</svg>
