<svg width="24" height="24" viewBox="0 0 24 24" fill="none" xmlns="http://www.w3.org/2000/svg">
<path d="M21.0007 12.0001H22.0008M18.5006 4.50002L18.0006 5.00002M2 12.0001H3.00004M12.0004 2V3.00001M4.92907 4.92897L5.6361 5.63598" stroke="#A7C6FF" stroke-width="1.25003" stroke-linecap="round" stroke-linejoin="round"/>
<path d="M6.28434 17.7339V11.3339C6.28434 9.91936 6.8864 8.5628 7.95808 7.5626C9.02976 6.5624 10.4833 6.00049 11.9988 6.00049C13.5144 6.00049 14.9679 6.5624 16.0396 7.5626C17.1113 8.5628 17.7134 9.91936 17.7134 11.3339V17.7339" fill="#A7C6FF"/>
<path d="M3.99854 20.9339C3.99854 21.2168 4.11895 21.4881 4.33328 21.6882C4.54762 21.8882 4.83832 22.0006 5.14144 22.0006H18.8563C19.1594 22.0006 19.4501 21.8882 19.6644 21.6882C19.8787 21.4881 19.9992 21.2168 19.9992 20.9339V19.8672C19.9992 19.3014 19.7583 18.7588 19.3297 18.3587C18.901 17.9587 18.3196 17.7339 17.7134 17.7339H6.28434C5.67811 17.7339 5.0967 17.9587 4.66803 18.3587C4.23936 18.7588 3.99854 19.3014 3.99854 19.8672V20.9339Z" fill="#A7C6FF"/>
<path d="M11.9988 11.3339V17.7339V11.3339Z" fill="#A7C6FF"/>
</svg>
