<svg width="24" height="24" viewBox="0 0 24 24" fill="none" xmlns="http://www.w3.org/2000/svg">
<path d="M4 13.0002C4.24486 11.0562 5.19466 9.26965 6.66925 7.97939C8.14384 6.68912 10.0407 5.98489 12 6.00025C13.294 6.00162 14.5684 6.31689 15.7139 6.91901C16.8593 7.52112 17.8416 8.39212 18.5764 9.45727C19.3113 10.5224 19.7768 11.7499 19.933 13.0345C20.0892 14.3191 19.9315 15.6224 19.4733 16.8326C19.0152 18.0429 18.2703 19.1239 17.3025 19.983C16.3348 20.8421 15.1731 21.4536 13.9171 21.765C12.6611 22.0765 11.3482 22.0787 10.0912 21.7713C8.83422 21.4639 7.67054 20.8562 6.7 20.0002L4 17.6002M9 17.0002H4V22.0002" stroke="#0E62FF" stroke-width="3" stroke-linecap="round" stroke-linejoin="round"/>
<path d="M10 2H14M12 14V10" stroke="#0E62FF" stroke-width="3" stroke-linecap="round" stroke-linejoin="round"/>
</svg>
